<svg width="38" height="18" viewBox="0 0 38 18" fill="none" xmlns="http://www.w3.org/2000/svg">
<path d="M8.85686 9.03522L14.8982 5.54754C16.32 4.72653 16.8071 2.90851 15.9861 1.48672C15.1654 0.0652303 13.3474 -0.422216 11.9256 0.398794L1.48682 6.42568L8.85686 9.03522Z" fill="#EA4335"/>
<path d="M13.4091 18C14.4365 18 15.4357 17.4668 15.9861 16.5131C16.8071 15.0913 16.3199 13.2733 14.8981 12.4526L4.45906 6.42569C3.03727 5.60468 1.21955 6.09213 0.398852 7.51392C-0.422158 8.93572 0.0649804 10.7534 1.48677 11.5744L11.9256 17.601C12.3936 17.8716 12.9047 18 13.4091 18Z" fill="#4285F4"/>
<path d="M23.7932 18C24.2975 18 24.8083 17.8716 25.2767 17.601L35.7155 11.5744L28.4388 8.91084L22.3041 12.4526C20.8823 13.2733 20.3952 15.0913 21.2159 16.5131C21.7666 17.4668 22.7658 18 23.7932 18Z" fill="#FBBC04"/>
<path d="M34.2263 11.9731C35.2538 11.9731 36.2529 11.4402 36.8033 10.4862C37.6243 9.06469 37.1372 7.24667 35.7154 6.42566L25.2766 0.398776C23.8548 -0.421927 22.0368 0.0649046 21.2161 1.4867C20.3951 2.90849 20.8822 4.72651 22.304 5.54752L32.7428 11.5744C33.2109 11.8444 33.722 11.9731 34.2263 11.9731Z" fill="#34A853"/>
</svg>
