<svg width="330" height="40" viewBox="0 0 330 40" fill="none" xmlns="http://www.w3.org/2000/svg">
<path d="M51.6998 15.7702C50.5669 15.1214 49.6729 14.2268 49.0167 13.087C48.3614 11.9482 48.033 10.6896 48.033 9.31171C48.033 7.93353 48.3614 6.67488 49.0167 5.53509C49.6729 4.39628 50.5669 3.50168 51.6998 2.85227C52.8328 2.20351 54.0678 1.87832 55.4062 1.87832C56.4523 1.87832 57.4363 2.06456 58.3578 2.43542C59.2787 2.80595 60.0369 3.32904 60.6332 4.00534L59.4208 5.21767C58.9703 4.6609 58.3909 4.23368 57.6822 3.93537C56.9732 3.63739 56.2143 3.4884 55.4062 3.4884C54.4131 3.4884 53.4813 3.73002 52.6139 4.2136C51.7462 4.69782 51.0504 5.38027 50.527 6.26062C50.0042 7.14258 49.7422 8.15832 49.7422 9.31171C49.7422 10.4638 50.0042 11.4815 50.527 12.3618C51.0504 13.2438 51.7462 13.9253 52.6139 14.4088C53.4813 14.8931 54.4131 15.134 55.4062 15.134C56.3607 15.134 57.1584 14.9857 57.801 14.6874C58.4437 14.3894 59.003 13.9952 59.4808 13.5049C59.8244 13.134 60.1033 12.6838 60.3158 12.1539C60.5269 11.6237 60.6536 11.0478 60.6931 10.4243H55.4457V8.85404H62.2825C62.3492 9.22555 62.3819 9.57018 62.3819 9.88759C62.3819 10.7621 62.2429 11.6136 61.965 12.4418C61.6862 13.2697 61.2421 13.9952 60.6332 14.6174C59.2945 16.0351 57.5526 16.7438 55.4062 16.7438C54.0678 16.7438 52.8328 16.4196 51.6998 15.7702Z" fill="white"/>
<path d="M70.3709 14.7567C70.8881 14.4526 71.3017 14.0189 71.6133 13.455C71.9243 12.8924 72.0801 12.2398 72.0801 11.4974C72.0801 10.7553 71.9243 10.1033 71.6133 9.53976C71.3017 8.97716 70.8881 8.54314 70.3709 8.23835C69.8546 7.93357 69.2978 7.78101 68.7015 7.78101C68.1185 7.78101 67.5692 7.93357 67.0519 8.23835C66.5356 8.54314 66.121 8.97716 65.8104 9.53976C65.4988 10.1033 65.3427 10.7553 65.3427 11.4974C65.3427 12.2398 65.4988 12.8924 65.8104 13.455C66.121 14.0189 66.5356 14.4526 67.0519 14.7567C67.5692 15.0615 68.1185 15.2141 68.7015 15.2141C69.2978 15.2141 69.8546 15.0615 70.3709 14.7567M66.0984 16.0591C65.3294 15.6015 64.7302 14.9725 64.2998 14.1702C63.8687 13.3692 63.6539 12.4781 63.6539 11.4974C63.6539 10.517 63.8687 9.62657 64.2998 8.8246C64.7302 8.02264 65.3294 7.39363 66.0984 6.93694C66.8666 6.4796 67.7344 6.25125 68.7015 6.25125C69.6683 6.25125 70.5403 6.4796 71.3153 6.93694C72.0904 7.39363 72.6925 8.02264 73.124 8.8246C73.5544 9.62657 73.7698 10.517 73.7698 11.4974C73.7698 12.4781 73.5544 13.3692 73.124 14.1702C72.6925 14.9725 72.0904 15.6015 71.3153 16.0591C70.5403 16.5155 69.6683 16.7438 68.7015 16.7438C67.7344 16.7438 66.8666 16.5155 66.0984 16.0591" fill="white"/>
<path d="M81.6394 14.7567C82.1567 14.4526 82.5703 14.0189 82.8819 13.455C83.1928 12.8924 83.3486 12.2398 83.3486 11.4974C83.3486 10.7553 83.1928 10.1033 82.8819 9.53976C82.5703 8.97716 82.1567 8.54314 81.6394 8.23835C81.1231 7.93357 80.5663 7.78101 79.9697 7.78101C79.387 7.78101 78.8377 7.93357 78.3204 8.23835C77.8041 8.54314 77.3896 8.97716 77.0786 9.53976C76.7674 10.1033 76.6112 10.7553 76.6112 11.4974C76.6112 12.2398 76.7674 12.8924 77.0786 13.455C77.3896 14.0189 77.8041 14.4526 78.3204 14.7567C78.8377 15.0615 79.387 15.2141 79.9697 15.2141C80.5663 15.2141 81.1231 15.0615 81.6394 14.7567M77.3669 16.0591C76.598 15.6015 75.9988 14.9725 75.5683 14.1702C75.1372 13.3692 74.9225 12.4781 74.9225 11.4974C74.9225 10.517 75.1372 9.62657 75.5683 8.8246C75.9988 8.02264 76.598 7.39363 77.3669 6.93694C78.1352 6.4796 79.0029 6.25125 79.9697 6.25125C80.9369 6.25125 81.8088 6.4796 82.5839 6.93694C83.3586 7.39363 83.9611 8.02264 84.3925 8.8246C84.823 9.62657 85.0383 10.517 85.0383 11.4974C85.0383 12.4781 84.823 13.3692 84.3925 14.1702C83.9611 14.9725 83.3586 15.6015 82.5839 16.0591C81.8088 16.5155 80.9369 16.7438 79.9697 16.7438C79.0029 16.7438 78.1352 16.5155 77.3669 16.0591" fill="white"/>
<path d="M92.7293 14.7644C93.2197 14.4651 93.6136 14.0356 93.9119 13.4762C94.2102 12.9162 94.3585 12.2574 94.3585 11.4976C94.3585 10.7387 94.2102 10.0757 93.9119 9.50949C93.6136 8.94332 93.2197 8.51384 92.7293 8.22071C92.2389 7.92759 91.7026 7.78086 91.1196 7.78086C90.5366 7.78086 89.9999 7.93082 89.5098 8.23075C89.0194 8.53068 88.6253 8.96049 88.3269 9.51985C88.029 10.0789 87.8796 10.7387 87.8796 11.4976C87.8796 12.2574 88.029 12.9162 88.3269 13.4762C88.6253 14.0356 89.0194 14.4651 89.5098 14.7644C89.9999 15.0643 90.5366 15.2143 91.1196 15.2143C91.7026 15.2143 92.2389 15.0643 92.7293 14.7644M88.1585 20.1825C87.4029 19.6131 86.8924 18.9501 86.6281 18.1954L88.198 17.5388C88.3969 18.1219 88.7506 18.5954 89.2611 18.9601C89.7709 19.3242 90.3775 19.5068 91.0801 19.5068C92.1262 19.5068 92.9308 19.2027 93.494 18.5954C94.0576 17.9881 94.3391 17.1388 94.3391 16.0489V14.995H94.2591C93.9413 15.499 93.484 15.9168 92.8884 16.2478C92.2921 16.5788 91.6164 16.7437 90.8608 16.7437C90.0261 16.7437 89.251 16.5179 88.5359 16.0658C87.82 15.6143 87.2503 14.9891 86.8267 14.1907C86.402 13.393 86.1909 12.4948 86.1909 11.4976C86.1909 10.5 86.402 9.6031 86.8267 8.80437C87.2503 8.00662 87.82 7.38182 88.5359 6.92934C89.251 6.47718 90.0261 6.2511 90.8608 6.2511C91.6164 6.2511 92.2921 6.41629 92.8884 6.74731C93.484 7.0793 93.9413 7.49648 94.2591 8.00014H94.3391V6.56885H95.9488V16.0285C95.9488 17.1155 95.7367 18.0364 95.313 18.7917C94.8884 19.5467 94.3086 20.1093 93.574 20.4805C92.8388 20.8513 92.0067 21.0366 91.0801 21.0366C89.8871 21.0366 88.9132 20.7519 88.1585 20.1825" fill="white"/>
<path d="M98.2342 2.19679H99.923V16.4261H98.2342V2.19679Z" fill="white"/>
<path d="M109.324 10.4041C109.297 10.0074 109.185 9.60963 108.986 9.21221C108.787 8.81447 108.466 8.47665 108.022 8.19874C107.578 7.92019 107.012 7.78092 106.323 7.78092C105.58 7.78092 104.938 8.01931 104.395 8.49705C103.852 8.97382 103.508 9.60963 103.362 10.4041H109.324ZM103.928 16.0681C103.18 15.6185 102.594 14.995 102.169 14.2008C101.745 13.4057 101.533 12.5049 101.533 11.4976C101.533 10.5441 101.732 9.66631 102.129 8.86435C102.527 8.06303 103.093 7.42723 103.829 6.95628C104.564 6.48631 105.409 6.25116 106.362 6.25116C107.317 6.25116 108.154 6.46591 108.877 6.89636C109.599 7.32779 110.151 7.93347 110.536 8.71536C110.921 9.49692 111.112 10.3983 111.112 11.4186C111.112 11.6035 111.099 11.736 111.073 11.816H103.242C103.269 12.558 103.448 13.1841 103.779 13.6936C104.11 14.2041 104.524 14.5847 105.021 14.837C105.518 15.0886 106.031 15.2143 106.561 15.2143C107.807 15.2143 108.767 14.6051 109.443 13.3853L110.934 14.1014C110.509 14.8956 109.923 15.5353 109.175 16.0185C108.426 16.5021 107.528 16.7437 106.482 16.7437C105.528 16.7437 104.677 16.519 103.928 16.0681" fill="white"/>
<path d="M121.884 14.8166C123.566 14.8166 124.898 14.333 125.878 13.3658C126.859 12.399 127.349 11.0477 127.349 9.31165C127.349 7.57622 126.859 6.22428 125.878 5.25713C124.898 4.28998 123.566 3.80673 121.884 3.80673H119.26V14.8166H121.884ZM117.571 2.19697H121.884C123.341 2.19697 124.613 2.49852 125.699 3.10096C126.786 3.70373 127.62 4.54197 128.203 5.61536C128.786 6.68842 129.078 7.9202 129.078 9.31165C129.078 10.7025 128.786 11.9349 128.203 13.0079C127.62 14.081 126.786 14.9192 125.699 15.5227C124.613 16.1248 123.341 16.4263 121.884 16.4263H117.571V2.19697Z" fill="white"/>
<path d="M138.299 10.4041C138.272 10.0074 138.16 9.60963 137.961 9.21221C137.762 8.81447 137.442 8.47665 136.998 8.19874C136.554 7.92019 135.987 7.78092 135.299 7.78092C134.557 7.78092 133.914 8.01931 133.37 8.49705C132.827 8.97382 132.483 9.60963 132.337 10.4041H138.299ZM132.904 16.0681C132.155 15.6185 131.569 14.995 131.145 14.2008C130.72 13.4057 130.509 12.5049 130.509 11.4976C130.509 10.5441 130.708 9.66631 131.105 8.86435C131.503 8.06303 132.069 7.42723 132.804 6.95628C133.54 6.48631 134.384 6.25116 135.338 6.25116C136.292 6.25116 137.13 6.46591 137.852 6.89636C138.574 7.32779 139.127 7.93347 139.512 8.71536C139.895 9.49692 140.088 10.3983 140.088 11.4186C140.088 11.6035 140.075 11.736 140.048 11.816H132.218C132.244 12.558 132.424 13.1841 132.755 13.6936C133.086 14.2041 133.5 14.5847 133.996 14.837C134.493 15.0886 135.007 15.2143 135.537 15.2143C136.782 15.2143 137.743 14.6051 138.419 13.3853L139.909 14.1014C139.485 14.8956 138.899 15.5353 138.15 16.0185C137.401 16.5021 136.504 16.7437 135.457 16.7437C134.503 16.7437 133.652 16.519 132.904 16.0681" fill="white"/>
<path d="M140.485 6.56879H142.314L145.335 14.4391H145.374L148.435 6.56879H150.224L146.189 16.4262H144.48L140.485 6.56879Z" fill="white"/>
<path d="M158.71 10.4041C158.683 10.0074 158.571 9.60963 158.372 9.21221C158.173 8.81447 157.852 8.47665 157.408 8.19874C156.964 7.92019 156.398 7.78092 155.708 7.78092C154.966 7.78092 154.324 8.01931 153.781 8.49705C153.238 8.97382 152.893 9.60963 152.748 10.4041H158.71ZM153.314 16.0681C152.566 15.6185 151.979 14.995 151.555 14.2008C151.131 13.4057 150.919 12.5049 150.919 11.4976C150.919 10.5441 151.118 9.66631 151.515 8.86435C151.913 8.06303 152.479 7.42723 153.214 6.95628C153.95 6.48631 154.795 6.25116 155.748 6.25116C156.702 6.25116 157.54 6.46591 158.263 6.89636C158.985 7.32779 159.537 7.93347 159.922 8.71536C160.306 9.49692 160.498 10.3983 160.498 11.4186C160.498 11.6035 160.485 11.736 160.459 11.816H152.628C152.655 12.558 152.834 13.1841 153.165 13.6936C153.496 14.2041 153.91 14.5847 154.407 14.837C154.904 15.0886 155.417 15.2143 155.947 15.2143C157.193 15.2143 158.153 14.6051 158.829 13.3853L160.32 14.1014C159.895 14.8956 159.309 15.5353 158.561 16.0185C157.812 16.5021 156.914 16.7437 155.868 16.7437C154.914 16.7437 154.062 16.519 153.314 16.0681" fill="white"/>
<path d="M162.206 2.19679H163.896V16.4261H162.206V2.19679Z" fill="white"/>
<path d="M172.223 14.7567C172.741 14.4526 173.154 14.0189 173.466 13.455C173.777 12.8924 173.932 12.2398 173.932 11.4974C173.932 10.7553 173.777 10.1033 173.466 9.53976C173.154 8.97716 172.741 8.54314 172.223 8.23835C171.707 7.93357 171.15 7.78101 170.554 7.78101C169.971 7.78101 169.422 7.93357 168.904 8.23835C168.388 8.54314 167.974 8.97716 167.663 9.53976C167.351 10.1033 167.195 10.7553 167.195 11.4974C167.195 12.2398 167.351 12.8924 167.663 13.455C167.974 14.0189 168.388 14.4526 168.904 14.7567C169.422 15.0615 169.971 15.2141 170.554 15.2141C171.15 15.2141 171.707 15.0615 172.223 14.7567M167.951 16.0591C167.182 15.6015 166.583 14.9725 166.152 14.1702C165.721 13.3692 165.506 12.4781 165.506 11.4974C165.506 10.517 165.721 9.62657 166.152 8.8246C166.583 8.02264 167.182 7.39363 167.951 6.93694C168.719 6.4796 169.587 6.25125 170.554 6.25125C171.521 6.25125 172.392 6.4796 173.168 6.93694C173.943 7.39363 174.545 8.02264 174.976 8.8246C175.407 9.62657 175.622 10.517 175.622 11.4974C175.622 12.4781 175.407 13.3692 174.976 14.1702C174.545 14.9725 173.943 15.6015 173.168 16.0591C172.392 16.5155 171.521 16.7438 170.554 16.7438C169.587 16.7438 168.719 16.5155 167.951 16.0591" fill="white"/>
<path d="M183.642 14.7567C184.138 14.4526 184.536 14.0189 184.834 13.455C185.132 12.8924 185.281 12.2397 185.281 11.4974C185.281 10.7553 185.132 10.1033 184.834 9.53976C184.536 8.97715 184.138 8.54313 183.642 8.23835C183.145 7.93356 182.605 7.78101 182.022 7.78101C181.439 7.78101 180.899 7.93 180.402 8.2283C179.905 8.52661 179.507 8.95707 179.209 9.52032C178.911 10.0833 178.763 10.7427 178.763 11.4974C178.763 12.2397 178.911 12.896 179.209 13.4654C179.507 14.0348 179.905 14.4685 180.402 14.7668C180.899 15.0648 181.439 15.2141 182.022 15.2141C182.605 15.2141 183.145 15.0615 183.642 14.7567M177.153 6.56867H178.763V8.01939H178.842C179.159 7.51638 179.617 7.09532 180.213 6.7575C180.809 6.41967 181.498 6.25125 182.28 6.25125C183.128 6.25125 183.909 6.47959 184.625 6.93693C185.341 7.39363 185.91 8.01939 186.334 8.81455C186.758 9.60972 186.97 10.5037 186.97 11.4974C186.97 12.4914 186.758 13.3854 186.334 14.1805C185.91 14.9757 185.341 15.6015 184.625 16.0591C183.909 16.5155 183.128 16.7438 182.28 16.7438C181.498 16.7438 180.806 16.5754 180.203 16.2376C179.6 15.8998 179.147 15.4725 178.842 14.9553H178.763L178.842 16.327V20.719H177.153V6.56867Z" fill="white"/>
<path d="M196.311 10.4041C196.284 10.0074 196.172 9.60963 195.973 9.21221C195.775 8.81447 195.453 8.47665 195.009 8.19874C194.565 7.92019 193.999 7.78092 193.309 7.78092C192.567 7.78092 191.925 8.01931 191.382 8.49705C190.839 8.97382 190.494 9.60963 190.349 10.4041H196.311ZM190.915 16.0681C190.167 15.6185 189.58 14.995 189.156 14.2008C188.732 13.4057 188.52 12.5049 188.52 11.4976C188.52 10.5441 188.719 9.66631 189.116 8.86435C189.514 8.06303 190.08 7.42723 190.815 6.95628C191.551 6.48631 192.396 6.25116 193.349 6.25116C194.304 6.25116 195.141 6.46591 195.864 6.89636C196.586 7.32779 197.138 7.93347 197.523 8.71536C197.907 9.49692 198.099 10.3983 198.099 11.4186C198.099 11.6035 198.086 11.736 198.06 11.816H190.229C190.256 12.558 190.435 13.1841 190.766 13.6936C191.097 14.2041 191.511 14.5847 192.008 14.837C192.505 15.0886 193.018 15.2143 193.548 15.2143C194.794 15.2143 195.754 14.6051 196.43 13.3853L197.921 14.1014C197.496 14.8956 196.91 15.5353 196.162 16.0185C195.413 16.5021 194.515 16.7437 193.469 16.7437C192.515 16.7437 191.664 16.519 190.915 16.0681" fill="white"/>
<path d="M199.808 6.56879H201.418V8.17855H201.498C201.683 7.63505 202.064 7.17868 202.64 6.80717C203.217 6.43664 203.79 6.25137 204.359 6.25137C204.77 6.25137 205.154 6.31712 205.512 6.44992V8.2579C205.154 8.06 204.69 7.96024 204.121 7.96024C203.656 7.96024 203.223 8.09595 202.819 8.36802C202.415 8.64107 202.094 9.00253 201.855 9.45404C201.616 9.90555 201.498 10.3976 201.498 10.9281V16.4262H199.808V6.56879Z" fill="white"/>
<path d="M212.915 16.2975C212.246 15.9992 211.656 15.5619 211.146 14.9857C210.636 14.4088 210.268 13.7105 210.043 12.8891L211.653 12.2329C211.878 13.0812 212.296 13.7763 212.905 14.3198C213.515 14.8626 214.223 15.134 215.032 15.134C215.867 15.134 216.568 14.9125 217.138 14.4688C217.708 14.0244 217.993 13.419 217.993 12.6498C217.993 11.9877 217.751 11.441 217.267 11.0109C216.784 10.5801 215.992 10.1791 214.893 9.80856L213.998 9.49017C212.991 9.13292 212.169 8.66197 211.534 8.07896C210.897 7.49628 210.58 6.68848 210.58 5.65493C210.58 4.97929 210.765 4.35352 211.137 3.77634C211.507 3.20013 212.02 2.7402 212.677 2.39558C213.333 2.05128 214.071 1.87832 214.893 1.87832C215.714 1.87832 216.433 2.03087 217.049 2.33598C217.665 2.64077 218.155 3.0113 218.519 3.44856C218.884 3.88582 219.132 4.31628 219.265 4.7409L217.695 5.41655C217.549 4.91289 217.244 4.46527 216.781 4.07465C216.317 3.68371 215.701 3.4884 214.933 3.4884C214.204 3.4884 213.581 3.69375 213.064 4.10477C212.548 4.51515 212.289 5.03241 212.289 5.65493C212.289 6.21074 212.507 6.66484 212.944 7.01626C213.382 7.36737 214.045 7.69515 214.933 7.99993L215.847 8.31767C217.052 8.75461 217.996 9.30134 218.679 9.95756C219.361 10.6131 219.702 11.5042 219.702 12.6307C219.702 13.5444 219.467 14.3126 218.996 14.9361C218.526 15.5587 217.933 16.016 217.218 16.3065C216.503 16.5981 215.76 16.7438 214.991 16.7438C214.276 16.7438 213.584 16.5955 212.915 16.2975Z" fill="white"/>
<path d="M223.805 16.5417C223.467 16.4069 223.179 16.2249 222.941 15.9953C222.676 15.7387 222.48 15.4382 222.355 15.0945C222.228 14.7499 222.166 14.3421 222.166 13.8695V8.09934H220.417V6.56861H222.166V3.62732H223.836V6.56861H226.26V8.09934H223.836V13.4663C223.836 14.0357 223.947 14.4561 224.174 14.7272C224.398 15.0252 224.743 15.1745 225.207 15.1745C225.617 15.1745 225.975 15.0819 226.28 14.8956V16.5255C226.068 16.6048 225.866 16.6612 225.674 16.6942C225.482 16.7279 225.227 16.7438 224.909 16.7438C224.511 16.7438 224.143 16.6764 223.805 16.5417Z" fill="white"/>
<path d="M228.893 15.6908C228.264 14.9892 227.949 14.0153 227.949 12.7693V6.56861H229.638V12.4914C229.638 14.3071 230.453 15.214 232.082 15.214C232.626 15.214 233.112 15.0618 233.543 14.7567C233.974 14.4525 234.305 14.0548 234.537 13.5647C234.769 13.0744 234.885 12.5581 234.885 12.0136V6.56861H236.554V16.4264H234.964V14.9552H234.885C234.594 15.4592 234.153 15.8829 233.563 16.2275C232.974 16.5721 232.341 16.7438 231.666 16.7438C230.446 16.7438 229.522 16.3933 228.893 15.6908Z" fill="white"/>
<path d="M244.752 14.7669C245.249 14.4686 245.646 14.0346 245.945 13.4652C246.243 12.8961 246.392 12.2395 246.392 11.4975C246.392 10.7428 246.243 10.0834 245.945 9.52045C245.646 8.9572 245.249 8.52642 244.752 8.22843C244.256 7.93012 243.716 7.78113 243.133 7.78113C242.55 7.78113 242.01 7.93336 241.513 8.23847C241.016 8.54326 240.618 8.97728 240.321 9.53988C240.022 10.1035 239.874 10.7555 239.874 11.4975C239.874 12.2395 240.022 12.8925 240.321 13.4551C240.618 14.0187 241.016 14.4524 241.513 14.7569C242.01 15.0616 242.55 15.2142 243.133 15.2142C243.716 15.2142 244.256 15.0649 244.752 14.7669M240.529 16.0683C239.814 15.6184 239.244 14.9923 238.82 14.1907C238.396 13.3887 238.184 12.4915 238.184 11.4975C238.184 10.5035 238.396 9.60628 238.82 8.80432C239.244 8.00333 239.814 7.37756 240.529 6.9267C241.245 6.47616 242.027 6.25105 242.874 6.25105C243.642 6.25105 244.331 6.4198 244.941 6.7573C245.55 7.09512 246.008 7.51651 246.312 8.0192H246.392L246.312 6.66823V2.19686H247.982V16.4262H246.392V14.9554H246.312C246.008 15.4727 245.55 15.8999 244.941 16.2377C244.331 16.5755 243.642 16.744 242.874 16.744C242.027 16.744 241.245 16.5189 240.529 16.0683" fill="white"/>
<path d="M257.402 10.4041C257.376 10.0074 257.263 9.60963 257.065 9.21221C256.866 8.81447 256.544 8.47665 256.1 8.19874C255.656 7.92019 255.09 7.78092 254.401 7.78092C253.659 7.78092 253.016 8.01931 252.474 8.49705C251.93 8.97382 251.586 9.60963 251.44 10.4041H257.402ZM252.006 16.0681C251.258 15.6185 250.672 14.995 250.247 14.2008C249.824 13.4057 249.611 12.5049 249.611 11.4976C249.611 10.5441 249.81 9.66631 250.208 8.86435C250.606 8.06303 251.172 7.42723 251.907 6.95628C252.642 6.48631 253.487 6.25116 254.44 6.25116C255.395 6.25116 256.233 6.46591 256.955 6.89636C257.677 7.32779 258.23 7.93347 258.615 8.71536C258.999 9.49692 259.191 10.3983 259.191 11.4186C259.191 11.6035 259.177 11.736 259.151 11.816H251.321C251.348 12.558 251.526 13.1841 251.857 13.6936C252.188 14.2041 252.603 14.5847 253.1 14.837C253.597 15.0886 254.11 15.2143 254.64 15.2143C255.885 15.2143 256.846 14.6051 257.521 13.3853L259.013 14.1014C258.588 14.8956 258.002 15.5353 257.253 16.0185C256.505 16.5021 255.606 16.7437 254.561 16.7437C253.607 16.7437 252.755 16.519 252.006 16.0681" fill="white"/>
<path d="M260.899 6.56879H262.509V8.03959H262.589C262.867 7.53594 263.304 7.11228 263.901 6.76766C264.497 6.42303 265.133 6.25137 265.808 6.25137C267.014 6.25137 267.931 6.60247 268.561 7.30435C269.19 8.00656 269.505 8.96691 269.505 10.186V16.4262H267.835V10.4445C267.835 8.66892 267.007 7.78113 265.351 7.78113C264.821 7.78113 264.344 7.93336 263.921 8.23847C263.496 8.54325 263.169 8.94099 262.937 9.4304C262.704 9.92078 262.589 10.4377 262.589 10.9812V16.4262H260.899V6.56879Z" fill="white"/>
<path d="M273.907 16.5417C273.569 16.4069 273.281 16.2249 273.043 15.9953C272.778 15.7387 272.582 15.4382 272.456 15.0945C272.33 14.7499 272.267 14.3421 272.267 13.8695V8.09934H270.518V6.56861H272.267V3.62732H273.937V6.56861H276.361V8.09934H273.937V13.4663C273.937 14.0357 274.049 14.4561 274.274 14.7272C274.5 15.0252 274.844 15.1745 275.308 15.1745C275.718 15.1745 276.076 15.0819 276.381 14.8956V16.5255C276.169 16.6048 275.966 16.6612 275.775 16.6942C275.583 16.7279 275.328 16.7438 275.01 16.7438C274.612 16.7438 274.245 16.6764 273.907 16.5417Z" fill="white"/>
<path d="M285.404 15.7702C284.277 15.1214 283.393 14.2268 282.751 13.087C282.108 11.9482 281.787 10.6896 281.787 9.31171C281.787 7.93353 282.108 6.67488 282.751 5.53509C283.393 4.39628 284.277 3.50168 285.404 2.85227C286.529 2.20351 287.775 1.87832 289.14 1.87832C290.213 1.87832 291.19 2.08043 292.071 2.48497C292.953 2.88919 293.71 3.46216 294.346 4.20421L293.155 5.37671C292.625 4.7273 292.032 4.25052 291.376 3.94574C290.72 3.64063 289.974 3.4884 289.14 3.4884C288.12 3.4884 287.178 3.73002 286.318 4.2136C285.456 4.69782 284.77 5.38027 284.261 6.26062C283.75 7.14258 283.496 8.15832 283.496 9.31171C283.496 10.4638 283.75 11.4815 284.261 12.3618C284.77 13.2438 285.456 13.9253 286.318 14.4088C287.178 14.8931 288.12 15.134 289.14 15.134C290.875 15.134 292.346 14.4257 293.552 13.008L294.764 14.2006C294.115 14.9821 293.306 15.6014 292.339 16.0591C291.372 16.5155 290.306 16.7438 289.14 16.7438C287.775 16.7438 286.529 16.4196 285.404 15.7702Z" fill="white"/>
<path d="M296.414 2.19679H298.102V16.4261H296.414V2.19679Z" fill="white"/>
<path d="M301.233 15.6908C300.604 14.9892 300.289 14.0153 300.289 12.7693V6.56861H301.979V12.4914C301.979 14.3071 302.793 15.214 304.423 15.214C304.966 15.214 305.453 15.0618 305.883 14.7567C306.314 14.4525 306.645 14.0548 306.878 13.5647C307.109 13.0744 307.225 12.5581 307.225 12.0136V6.56861H308.894V16.4264H307.305V14.9552H307.225C306.934 15.4592 306.493 15.8829 305.904 16.2275C305.313 16.5721 304.681 16.7438 304.005 16.7438C302.786 16.7438 301.862 16.3933 301.233 15.6908Z" fill="white"/>
<path d="M317.668 14.7567C318.165 14.4526 318.563 14.0189 318.861 13.455C319.159 12.8924 319.308 12.2398 319.308 11.4974C319.308 10.7553 319.159 10.1033 318.861 9.53976C318.563 8.97715 318.165 8.54314 317.668 8.23835C317.172 7.93356 316.632 7.78101 316.049 7.78101C315.466 7.78101 314.926 7.93 314.429 8.22831C313.933 8.52662 313.535 8.95707 313.237 9.52033C312.938 10.0833 312.79 10.7427 312.79 11.4974C312.79 12.2398 312.938 12.896 313.237 13.4654C313.535 14.0348 313.933 14.4685 314.429 14.7668C314.926 15.0648 315.466 15.2141 316.049 15.2141C316.632 15.2141 317.172 15.0615 317.668 14.7567M314.23 16.2376C313.627 15.8998 313.173 15.4725 312.869 14.9553H312.79V16.4261H311.18V2.19673H312.869V6.66811L312.79 8.0194H312.869C313.187 7.51639 313.643 7.09532 314.24 6.7575C314.837 6.41968 315.526 6.25125 316.307 6.25125C317.155 6.25125 317.936 6.4796 318.652 6.93694C319.368 7.39363 319.937 8.0194 320.361 8.81456C320.785 9.60972 320.997 10.5037 320.997 11.4974C320.997 12.4914 320.785 13.3854 320.361 14.1805C319.937 14.9757 319.368 15.6015 318.652 16.0591C317.936 16.5155 317.155 16.7438 316.307 16.7438C315.526 16.7438 314.833 16.5754 314.23 16.2376" fill="white"/>
<path d="M323.422 15.9496C322.693 15.4197 322.183 14.7635 321.892 13.9819L323.382 13.3264C323.647 13.9489 324.022 14.4257 324.505 14.7567C324.989 15.0887 325.515 15.2539 326.086 15.2539C326.722 15.2539 327.248 15.1149 327.665 14.8367C328.083 14.5578 328.291 14.22 328.291 13.8226C328.291 13.4384 328.135 13.121 327.824 12.869C327.512 12.617 326.979 12.399 326.224 12.2128L324.873 11.875C324.131 11.7033 323.498 11.3914 322.975 10.9409C322.452 10.491 322.19 9.89469 322.19 9.15232C322.19 8.5434 322.365 8.01934 322.717 7.5824C323.067 7.14514 323.535 6.8138 324.117 6.58902C324.7 6.36326 325.337 6.25119 326.026 6.25119C326.873 6.25119 327.646 6.44683 328.341 6.83744C329.036 7.22839 329.53 7.78095 329.822 8.49708L328.331 9.13321C328.119 8.65547 327.797 8.30501 327.367 8.07926C326.936 7.85415 326.456 7.74144 325.926 7.74144C325.41 7.74144 324.942 7.86775 324.525 8.11877C324.108 8.37076 323.9 8.69498 323.9 9.09273C323.9 9.438 324.035 9.7091 324.306 9.90797C324.578 10.1068 325.012 10.2853 325.608 10.4447L327.079 10.8016C328.059 11.0536 328.791 11.4277 329.274 11.9245C329.758 12.4214 330 13.0144 330 13.7037C330 14.2731 329.835 14.7904 329.504 15.2539C329.172 15.7177 328.709 16.0817 328.112 16.3473C327.516 16.6116 326.84 16.7438 326.086 16.7438C325.038 16.7438 324.15 16.4795 323.422 15.9496Z" fill="white"/>
<path d="M9.33973 9.52777L15.7104 5.84994C17.2097 4.98417 17.7234 3.06704 16.8577 1.56773C15.9922 0.0687403 14.0751 -0.445281 12.5758 0.42049L1.56787 6.77596L9.33973 9.52777Z" fill="#EA4335"/>
<path d="M14.1401 18.9813C15.2236 18.9813 16.2772 18.419 16.8576 17.4133C17.7234 15.914 17.2097 13.9969 15.7104 13.1315L4.70217 6.77599C3.20286 5.91021 1.28604 6.42424 0.420597 7.92355C-0.445174 9.42286 0.0685232 11.3397 1.56783 12.2054L12.5757 18.5606C13.0693 18.8459 13.6083 18.9813 14.1401 18.9813Z" fill="#4285F4"/>
<path d="M25.0904 18.9813C25.6223 18.9813 26.1609 18.8459 26.6549 18.5606L37.6628 12.2054L29.9894 9.39662L23.5202 13.1315C22.0209 13.9969 21.5072 15.914 22.3726 17.4133C22.9534 18.419 24.007 18.9813 25.0904 18.9813Z" fill="#FBBC04"/>
<path d="M36.0924 12.6258C37.1758 12.6258 38.2295 12.0639 38.8099 11.0578C39.6757 9.55886 39.162 7.64173 37.6627 6.77595L26.6548 0.420487C25.1555 -0.444961 23.2383 0.0684125 22.3729 1.56772C21.5071 3.06703 22.0208 4.98417 23.5201 5.84994L34.528 12.2054C35.0216 12.4901 35.5606 12.6258 36.0924 12.6258Z" fill="#34A853"/>
<path d="M49.6254 36.4415V26.3102H53.0486C53.8401 26.3102 54.4898 26.4454 54.9977 26.7159C55.5056 26.983 55.8815 27.3507 56.1256 27.819C56.3696 28.2873 56.4917 28.82 56.4917 29.4169C56.4917 30.0138 56.3696 30.5431 56.1256 31.0048C55.8815 31.4665 55.5072 31.8293 55.0026 32.0932C54.4981 32.3537 53.8533 32.484 53.0684 32.484H50.2981V31.3759H53.0288C53.5697 31.3759 54.005 31.2967 54.3348 31.1384C54.6679 30.9801 54.9087 30.7558 55.0571 30.4656C55.2088 30.1721 55.2846 29.8225 55.2846 29.4169C55.2846 29.0112 55.2088 28.6567 55.0571 28.3533C54.9054 28.0499 54.663 27.8157 54.3299 27.6508C53.9968 27.4826 53.5565 27.3985 53.009 27.3985H50.8522V36.4415H49.6254ZM54.3942 31.8903L56.8874 36.4415H55.4627L53.009 31.8903H54.3942Z" fill="#A1A1AA"/>
<path d="M61.3829 36.5998C60.6969 36.5998 60.0951 36.4365 59.5773 36.11C59.0628 35.7835 58.6605 35.3268 58.3702 34.7397C58.0833 34.1527 57.9399 33.4667 57.9399 32.6818C57.9399 31.8903 58.0833 31.1994 58.3702 30.6091C58.6605 30.0188 59.0628 29.5603 59.5773 29.2338C60.0951 28.9074 60.6969 28.7441 61.3829 28.7441C62.0689 28.7441 62.6691 28.9074 63.1836 29.2338C63.7014 29.5603 64.1037 30.0188 64.3906 30.6091C64.6808 31.1994 64.826 31.8903 64.826 32.6818C64.826 33.4667 64.6808 34.1527 64.3906 34.7397C64.1037 35.3268 63.7014 35.7835 63.1836 36.11C62.6691 36.4365 62.0689 36.5998 61.3829 36.5998ZM61.3829 35.551C61.904 35.551 62.3327 35.4175 62.6691 35.1503C63.0055 34.8832 63.2545 34.532 63.4161 34.0966C63.5777 33.6613 63.6585 33.1897 63.6585 32.6818C63.6585 32.174 63.5777 31.7007 63.4161 31.2621C63.2545 30.8235 63.0055 30.4689 62.6691 30.1985C62.3327 29.9281 61.904 29.7928 61.3829 29.7928C60.8618 29.7928 60.4331 29.9281 60.0967 30.1985C59.7603 30.4689 59.5113 30.8235 59.3497 31.2621C59.1881 31.7007 59.1073 32.174 59.1073 32.6818C59.1073 33.1897 59.1881 33.6613 59.3497 34.0966C59.5113 34.532 59.7603 34.8832 60.0967 35.1503C60.4331 35.4175 60.8618 35.551 61.3829 35.551Z" fill="#A1A1AA"/>
<path d="M67.0879 39.2909C66.89 39.2909 66.7136 39.2744 66.5586 39.2414C66.4036 39.2117 66.2964 39.1821 66.2371 39.1524L66.5339 38.1234C66.8175 38.196 67.0681 38.2224 67.2858 38.2026C67.5035 38.1828 67.6964 38.0855 67.8646 37.9107C68.0361 37.7392 68.1927 37.4605 68.3345 37.0747L68.5522 36.4811L65.7424 28.843H67.0088L69.1063 34.898H69.1854L71.2829 28.843H72.5493L69.3239 37.5496C69.1788 37.942 68.9991 38.2669 68.7847 38.5241C68.5703 38.7847 68.3213 38.9776 68.0377 39.1029C67.7574 39.2282 67.4408 39.2909 67.0879 39.2909Z" fill="#A1A1AA"/>
<path d="M76.095 36.6196C75.6135 36.6196 75.1765 36.5289 74.7841 36.3475C74.3916 36.1628 74.0799 35.8973 73.8491 35.551C73.6182 35.2015 73.5028 34.7793 73.5028 34.2846C73.5028 33.8493 73.5886 33.4964 73.76 33.226C73.9315 32.9523 74.1607 32.7379 74.4477 32.5829C74.7346 32.4279 75.0512 32.3125 75.3975 32.2366C75.7471 32.1575 76.0983 32.0948 76.4512 32.0486C76.9129 31.9893 77.2872 31.9447 77.5741 31.9151C77.8643 31.8821 78.0754 31.8277 78.2073 31.7518C78.3425 31.676 78.4101 31.544 78.4101 31.3561V31.3165C78.4101 30.8284 78.2766 30.4491 78.0094 30.1787C77.7456 29.9083 77.3449 29.7731 76.8073 29.7731C76.25 29.7731 75.813 29.8951 75.4964 30.1391C75.1798 30.3832 74.9572 30.6437 74.8286 30.9207L73.7205 30.525C73.9183 30.0633 74.1822 29.7038 74.512 29.4466C74.8451 29.186 75.2078 29.0046 75.6003 28.9024C75.996 28.7969 76.3852 28.7441 76.7678 28.7441C77.0118 28.7441 77.2921 28.7738 77.6087 28.8331C77.9286 28.8892 78.237 29.0063 78.5338 29.1844C78.8339 29.3625 79.0829 29.6312 79.2808 29.9907C79.4787 30.3502 79.5776 30.8317 79.5776 31.4352V36.4415H78.4101V35.4125H78.3508C78.2716 35.5774 78.1397 35.7539 77.955 35.9418C77.7703 36.1298 77.5246 36.2898 77.2179 36.4217C76.9112 36.5536 76.5369 36.6196 76.095 36.6196ZM76.2731 35.5708C76.7348 35.5708 77.1239 35.4801 77.4405 35.2987C77.7604 35.1174 78.0012 34.8832 78.1628 34.5963C78.3277 34.3094 78.4101 34.0076 78.4101 33.691V32.6225C78.3607 32.6818 78.2518 32.7363 78.0836 32.7857C77.9187 32.8319 77.7275 32.8731 77.5098 32.9094C77.2954 32.9424 77.086 32.9721 76.8815 32.9984C76.6804 33.0215 76.5171 33.0413 76.3918 33.0578C76.0884 33.0974 75.8048 33.1617 75.5409 33.2507C75.2804 33.3365 75.0693 33.4667 74.9077 33.6415C74.7494 33.813 74.6703 34.0472 74.6703 34.344C74.6703 34.7496 74.8203 35.0563 75.1204 35.2641C75.4239 35.4686 75.8081 35.5708 76.2731 35.5708Z" fill="#A1A1AA"/>
<path d="M82.8759 26.3102V36.4415H81.7085V26.3102H82.8759Z" fill="#A1A1AA"/>
<path d="M89.0905 36.4415V26.3102H90.3173V30.8218H95.7193V26.3102H96.9462V36.4415H95.7193V31.9101H90.3173V36.4415H89.0905Z" fill="#A1A1AA"/>
<path d="M102.331 36.5998C101.645 36.5998 101.043 36.4365 100.525 36.11C100.011 35.7835 99.6084 35.3268 99.3182 34.7397C99.0313 34.1527 98.8878 33.4667 98.8878 32.6818C98.8878 31.8903 99.0313 31.1994 99.3182 30.6091C99.6084 30.0188 100.011 29.5603 100.525 29.2338C101.043 28.9074 101.645 28.7441 102.331 28.7441C103.017 28.7441 103.617 28.9074 104.132 29.2338C104.649 29.5603 105.052 30.0188 105.339 30.6091C105.629 31.1994 105.774 31.8903 105.774 32.6818C105.774 33.4667 105.629 34.1527 105.339 34.7397C105.052 35.3268 104.649 35.7835 104.132 36.11C103.617 36.4365 103.017 36.5998 102.331 36.5998ZM102.331 35.551C102.852 35.551 103.281 35.4175 103.617 35.1503C103.953 34.8832 104.202 34.532 104.364 34.0966C104.526 33.6613 104.606 33.1897 104.606 32.6818C104.606 32.174 104.526 31.7007 104.364 31.2621C104.202 30.8235 103.953 30.4689 103.617 30.1985C103.281 29.9281 102.852 29.7928 102.331 29.7928C101.81 29.7928 101.381 29.9281 101.045 30.1985C100.708 30.4689 100.459 30.8235 100.298 31.2621C100.136 31.7007 100.055 32.174 100.055 32.6818C100.055 33.1897 100.136 33.6613 100.298 34.0966C100.459 34.532 100.708 34.8832 101.045 35.1503C101.381 35.4175 101.81 35.551 102.331 35.551Z" fill="#A1A1AA"/>
<path d="M108.723 26.3102V36.4415H107.556V26.3102H108.723Z" fill="#A1A1AA"/>
<path d="M112.029 26.3102V36.4415H110.862V26.3102H112.029Z" fill="#A1A1AA"/>
<path d="M117.254 36.5998C116.568 36.5998 115.967 36.4365 115.449 36.11C114.934 35.7835 114.532 35.3268 114.242 34.7397C113.955 34.1527 113.811 33.4667 113.811 32.6818C113.811 31.8903 113.955 31.1994 114.242 30.6091C114.532 30.0188 114.934 29.5603 115.449 29.2338C115.967 28.9074 116.568 28.7441 117.254 28.7441C117.94 28.7441 118.541 28.9074 119.055 29.2338C119.573 29.5603 119.975 30.0188 120.262 30.6091C120.552 31.1994 120.697 31.8903 120.697 32.6818C120.697 33.4667 120.552 34.1527 120.262 34.7397C119.975 35.3268 119.573 35.7835 119.055 36.11C118.541 36.4365 117.94 36.5998 117.254 36.5998ZM117.254 35.551C117.775 35.551 118.204 35.4175 118.541 35.1503C118.877 34.8832 119.126 34.532 119.288 34.0966C119.449 33.6613 119.53 33.1897 119.53 32.6818C119.53 32.174 119.449 31.7007 119.288 31.2621C119.126 30.8235 118.877 30.4689 118.541 30.1985C118.204 29.9281 117.775 29.7928 117.254 29.7928C116.733 29.7928 116.305 29.9281 115.968 30.1985C115.632 30.4689 115.383 30.8235 115.221 31.2621C115.06 31.7007 114.979 32.174 114.979 32.6818C114.979 33.1897 115.06 33.6613 115.221 34.0966C115.383 34.532 115.632 34.8832 115.968 35.1503C116.305 35.4175 116.733 35.551 117.254 35.551Z" fill="#A1A1AA"/>
<path d="M123.943 36.4415L121.627 28.843H122.854L124.497 34.6606H124.576L126.198 28.843H127.445L129.048 34.6408H129.127L130.769 28.843H131.996L129.681 36.4415H128.533L126.871 30.6041H126.752L125.09 36.4415H123.943Z" fill="#A1A1AA"/>
<path d="M135.776 36.6196C135.294 36.6196 134.857 36.5289 134.465 36.3475C134.072 36.1628 133.761 35.8973 133.53 35.551C133.299 35.2015 133.183 34.7793 133.183 34.2846C133.183 33.8493 133.269 33.4964 133.441 33.226C133.612 32.9523 133.841 32.7379 134.128 32.5829C134.415 32.4279 134.732 32.3125 135.078 32.2366C135.428 32.1575 135.779 32.0948 136.132 32.0486C136.593 31.9893 136.968 31.9447 137.255 31.9151C137.545 31.8821 137.756 31.8277 137.888 31.7518C138.023 31.676 138.091 31.544 138.091 31.3561V31.3165C138.091 30.8284 137.957 30.4491 137.69 30.1787C137.426 29.9083 137.026 29.7731 136.488 29.7731C135.931 29.7731 135.494 29.8951 135.177 30.1391C134.86 30.3832 134.638 30.6437 134.509 30.9207L133.401 30.525C133.599 30.0633 133.863 29.7038 134.193 29.4466C134.526 29.186 134.888 29.0046 135.281 28.9024C135.677 28.7969 136.066 28.7441 136.448 28.7441C136.692 28.7441 136.973 28.7738 137.289 28.8331C137.609 28.8892 137.918 29.0063 138.214 29.1844C138.515 29.3625 138.764 29.6312 138.961 29.9907C139.159 30.3502 139.258 30.8317 139.258 31.4352V36.4415H138.091V35.4125H138.031C137.952 35.5774 137.82 35.7539 137.636 35.9418C137.451 36.1298 137.205 36.2898 136.899 36.4217C136.592 36.5536 136.218 36.6196 135.776 36.6196ZM135.954 35.5708C136.415 35.5708 136.805 35.4801 137.121 35.2987C137.441 35.1174 137.682 34.8832 137.843 34.5963C138.008 34.3094 138.091 34.0076 138.091 33.691V32.6225C138.041 32.6818 137.932 32.7363 137.764 32.7857C137.599 32.8319 137.408 32.8731 137.19 32.9094C136.976 32.9424 136.767 32.9721 136.562 32.9984C136.361 33.0215 136.198 33.0413 136.072 33.0578C135.769 33.0974 135.485 33.1617 135.222 33.2507C134.961 33.3365 134.75 33.4667 134.588 33.6415C134.43 33.813 134.351 34.0472 134.351 34.344C134.351 34.7496 134.501 35.0563 134.801 35.2641C135.104 35.4686 135.489 35.5708 135.954 35.5708Z" fill="#A1A1AA"/>
<path d="M141.869 39.2909C141.671 39.2909 141.495 39.2744 141.34 39.2414C141.185 39.2117 141.077 39.1821 141.018 39.1524L141.315 38.1234C141.599 38.196 141.849 38.2224 142.067 38.2026C142.284 38.1828 142.477 38.0855 142.646 37.9107C142.817 37.7392 142.974 37.4605 143.116 37.0747L143.333 36.4811L140.523 28.843H141.79L143.887 34.898H143.966L146.064 28.843H147.33L144.105 37.5496C143.96 37.942 143.78 38.2669 143.566 38.5241C143.351 38.7847 143.102 38.9776 142.819 39.1029C142.538 39.2282 142.222 39.2909 141.869 39.2909Z" fill="#A1A1AA"/>
<path d="M159.596 26.3102H160.823V33.0182C160.823 33.7108 160.66 34.3292 160.333 34.8733C160.01 35.4142 159.553 35.8413 158.963 36.1546C158.373 36.4646 157.68 36.6196 156.885 36.6196C156.09 36.6196 155.398 36.4646 154.808 36.1546C154.217 35.8413 153.759 35.4142 153.432 34.8733C153.109 34.3292 152.948 33.7108 152.948 33.0182V26.3102H154.174V32.9193C154.174 33.414 154.283 33.8543 154.501 34.2401C154.719 34.6227 155.029 34.9244 155.431 35.1454C155.837 35.3631 156.321 35.4719 156.885 35.4719C157.449 35.4719 157.934 35.3631 158.34 35.1454C158.745 34.9244 159.055 34.6227 159.27 34.2401C159.487 33.8543 159.596 33.414 159.596 32.9193V26.3102Z" fill="#A1A1AA"/>
<path d="M164.282 31.8705V36.4415H163.115V28.843H164.243V30.0303H164.341C164.52 29.6444 164.79 29.3344 165.153 29.1003C165.516 28.8628 165.984 28.7441 166.558 28.7441C167.072 28.7441 167.522 28.8496 167.908 29.0607C168.294 29.2685 168.594 29.5851 168.809 30.0105C169.023 30.4326 169.13 30.9669 169.13 31.6133V36.4415H167.963V31.6925C167.963 31.0955 167.808 30.6305 167.498 30.2974C167.188 29.961 166.762 29.7928 166.221 29.7928C165.849 29.7928 165.516 29.8736 165.222 30.0352C164.932 30.1968 164.703 30.4326 164.534 30.7427C164.366 31.0527 164.282 31.4286 164.282 31.8705Z" fill="#A1A1AA"/>
<path d="M171.263 36.4415V28.843H172.431V36.4415H171.263ZM171.857 27.5766C171.629 27.5766 171.433 27.4991 171.268 27.3441C171.107 27.1891 171.026 27.0028 171.026 26.7851C171.026 26.5675 171.107 26.3811 171.268 26.2261C171.433 26.0711 171.629 25.9936 171.857 25.9936C172.085 25.9936 172.279 26.0711 172.441 26.2261C172.606 26.3811 172.688 26.5675 172.688 26.7851C172.688 27.0028 172.606 27.1891 172.441 27.3441C172.279 27.4991 172.085 27.5766 171.857 27.5766Z" fill="#A1A1AA"/>
<path d="M180.783 28.843L177.973 36.4415H176.785L173.976 28.843H175.242L177.339 34.898H177.419L179.516 28.843H180.783Z" fill="#A1A1AA"/>
<path d="M185.237 36.5998C184.505 36.5998 183.873 36.4382 183.343 36.115C182.815 35.7885 182.408 35.3334 182.121 34.7496C181.837 34.1626 181.695 33.4799 181.695 32.7016C181.695 31.9233 181.837 31.2373 182.121 30.6437C182.408 30.0468 182.807 29.5818 183.318 29.2487C183.832 28.9123 184.432 28.7441 185.118 28.7441C185.514 28.7441 185.905 28.8101 186.291 28.942C186.677 29.0739 187.028 29.2883 187.345 29.5851C187.661 29.8786 187.913 30.2677 188.101 30.7525C188.289 31.2373 188.383 31.8343 188.383 32.5433V33.038H182.526V32.0288H187.196C187.196 31.6001 187.11 31.2176 186.939 30.8812C186.771 30.5448 186.53 30.2793 186.217 30.0847C185.907 29.8901 185.541 29.7928 185.118 29.7928C184.653 29.7928 184.251 29.9083 183.911 30.1391C183.575 30.3667 183.316 30.6635 183.135 31.0296C182.953 31.3956 182.863 31.7881 182.863 32.2069V32.8797C182.863 33.4536 182.962 33.94 183.159 34.339C183.361 34.7348 183.639 35.0366 183.996 35.2443C184.352 35.4488 184.766 35.551 185.237 35.551C185.544 35.551 185.821 35.5082 186.068 35.4224C186.319 35.3334 186.535 35.2015 186.716 35.0267C186.898 34.8486 187.038 34.6276 187.137 34.3638L188.265 34.6804C188.146 35.0629 187.946 35.3993 187.666 35.6896C187.386 35.9765 187.04 36.2007 186.627 36.3623C186.215 36.5206 185.752 36.5998 185.237 36.5998Z" fill="#A1A1AA"/>
<path d="M190.159 36.4415V28.843H191.287V29.9907H191.366C191.505 29.6148 191.756 29.3097 192.118 29.0755C192.481 28.8414 192.89 28.7243 193.345 28.7243C193.431 28.7243 193.538 28.726 193.667 28.7293C193.795 28.7326 193.893 28.7375 193.959 28.7441V29.9314C193.919 29.9215 193.828 29.9066 193.686 29.8868C193.548 29.8638 193.401 29.8522 193.246 29.8522C192.877 29.8522 192.547 29.9297 192.257 30.0847C191.97 30.2364 191.742 30.4475 191.574 30.7179C191.409 30.985 191.327 31.2901 191.327 31.6331V36.4415H190.159Z" fill="#A1A1AA"/>
<path d="M200.725 30.5448L199.676 30.8416C199.61 30.6668 199.513 30.497 199.384 30.3321C199.259 30.1639 199.087 30.0254 198.87 29.9165C198.652 29.8077 198.373 29.7533 198.034 29.7533C197.569 29.7533 197.181 29.8605 196.871 30.0748C196.564 30.2859 196.411 30.5547 196.411 30.8812C196.411 31.1714 196.517 31.4006 196.728 31.5688C196.939 31.737 197.268 31.8771 197.717 31.9893L198.845 32.2663C199.524 32.4312 200.03 32.6835 200.364 33.0232C200.697 33.3596 200.863 33.7932 200.863 34.3242C200.863 34.7595 200.738 35.1487 200.487 35.4917C200.24 35.8347 199.894 36.1051 199.448 36.303C199.003 36.5008 198.485 36.5998 197.895 36.5998C197.12 36.5998 196.479 36.4316 195.971 36.0952C195.463 35.7588 195.141 35.2674 195.006 34.621L196.114 34.344C196.22 34.7529 196.419 35.0596 196.713 35.2641C197.01 35.4686 197.397 35.5708 197.875 35.5708C198.419 35.5708 198.851 35.4554 199.171 35.2245C199.495 34.9904 199.656 34.7101 199.656 34.3836C199.656 34.1197 199.564 33.8988 199.379 33.7207C199.194 33.5393 198.911 33.4041 198.528 33.315L197.262 33.0182C196.566 32.8533 196.055 32.5977 195.728 32.2515C195.405 31.9019 195.244 31.4649 195.244 30.9405C195.244 30.5118 195.364 30.1325 195.605 29.8027C195.849 29.4729 196.18 29.2141 196.599 29.0261C197.021 28.8381 197.499 28.7441 198.034 28.7441C198.785 28.7441 199.376 28.909 199.805 29.2388C200.237 29.5686 200.543 30.0039 200.725 30.5448Z" fill="#A1A1AA"/>
<path d="M202.621 36.4415V28.843H203.788V36.4415H202.621ZM203.214 27.5766C202.987 27.5766 202.79 27.4991 202.626 27.3441C202.464 27.1891 202.383 27.0028 202.383 26.7851C202.383 26.5675 202.464 26.3811 202.626 26.2261C202.79 26.0711 202.987 25.9936 203.214 25.9936C203.442 25.9936 203.636 26.0711 203.798 26.2261C203.963 26.3811 204.045 26.5675 204.045 26.7851C204.045 27.0028 203.963 27.1891 203.798 27.3441C203.636 27.4991 203.442 27.5766 203.214 27.5766Z" fill="#A1A1AA"/>
<path d="M209.231 28.843V29.8324H205.293V28.843H209.231ZM206.441 27.0226H207.608V34.2648C207.608 34.5946 207.656 34.842 207.752 35.0069C207.851 35.1685 207.976 35.2773 208.128 35.3334C208.283 35.3861 208.446 35.4125 208.617 35.4125C208.746 35.4125 208.852 35.4059 208.934 35.3927C209.017 35.3762 209.082 35.3631 209.132 35.3532L209.369 36.4019C209.29 36.4316 209.18 36.4613 209.038 36.4909C208.896 36.5239 208.716 36.5404 208.499 36.5404C208.169 36.5404 207.846 36.4695 207.529 36.3277C207.216 36.1859 206.955 35.9699 206.748 35.6797C206.543 35.3894 206.441 35.0234 206.441 34.5814V27.0226Z" fill="#A1A1AA"/>
<path d="M211.739 39.2909C211.541 39.2909 211.365 39.2744 211.21 39.2414C211.055 39.2117 210.947 39.1821 210.888 39.1524L211.185 38.1234C211.469 38.196 211.719 38.2224 211.937 38.2026C212.154 38.1828 212.347 38.0855 212.516 37.9107C212.687 37.7392 212.844 37.4605 212.986 37.0747L213.203 36.4811L210.393 28.843H211.66L213.757 34.898H213.836L215.934 28.843H217.2L213.975 37.5496C213.83 37.942 213.65 38.2669 213.436 38.5241C213.221 38.7847 212.972 38.9776 212.689 39.1029C212.408 39.2282 212.092 39.2909 211.739 39.2909Z" fill="#A1A1AA"/>
<path d="M225.746 36.5998C225.06 36.5998 224.458 36.4365 223.94 36.11C223.426 35.7835 223.024 35.3268 222.733 34.7397C222.447 34.1527 222.303 33.4667 222.303 32.6818C222.303 31.8903 222.447 31.1994 222.733 30.6091C223.024 30.0188 223.426 29.5603 223.94 29.2338C224.458 28.9074 225.06 28.7441 225.746 28.7441C226.432 28.7441 227.032 28.9074 227.547 29.2338C228.065 29.5603 228.467 30.0188 228.754 30.6091C229.044 31.1994 229.189 31.8903 229.189 32.6818C229.189 33.4667 229.044 34.1527 228.754 34.7397C228.467 35.3268 228.065 35.7835 227.547 36.11C227.032 36.4365 226.432 36.5998 225.746 36.5998ZM225.746 35.551C226.267 35.551 226.696 35.4175 227.032 35.1503C227.369 34.8832 227.618 34.532 227.779 34.0966C227.941 33.6613 228.022 33.1897 228.022 32.6818C228.022 32.174 227.941 31.7007 227.779 31.2621C227.618 30.8235 227.369 30.4689 227.032 30.1985C226.696 29.9281 226.267 29.7928 225.746 29.7928C225.225 29.7928 224.796 29.9281 224.46 30.1985C224.124 30.4689 223.875 30.8235 223.713 31.2621C223.551 31.7007 223.471 32.174 223.471 32.6818C223.471 33.1897 223.551 33.6613 223.713 34.0966C223.875 34.532 224.124 34.8832 224.46 35.1503C224.796 35.4175 225.225 35.551 225.746 35.551Z" fill="#A1A1AA"/>
<path d="M234.355 28.843V29.8324H230.259V28.843H234.355ZM231.486 36.4415V27.7943C231.486 27.359 231.588 26.9962 231.792 26.706C231.997 26.4158 232.262 26.1981 232.589 26.053C232.915 25.9079 233.26 25.8353 233.623 25.8353C233.91 25.8353 234.144 25.8584 234.325 25.9046C234.507 25.9508 234.642 25.9936 234.731 26.0332L234.395 27.0424C234.335 27.0226 234.253 26.9978 234.147 26.9682C234.045 26.9385 233.91 26.9236 233.742 26.9236C233.356 26.9236 233.077 27.0209 232.905 27.2155C232.737 27.4101 232.653 27.6954 232.653 28.0713V36.4415H231.486Z" fill="#A1A1AA"/>
<path d="M240.067 36.4415V26.3102H241.294V35.3532H246.004V36.4415H240.067Z" fill="#A1A1AA"/>
<path d="M250.832 36.5998C250.146 36.5998 249.544 36.4365 249.026 36.11C248.512 35.7835 248.109 35.3268 247.819 34.7397C247.532 34.1527 247.389 33.4667 247.389 32.6818C247.389 31.8903 247.532 31.1994 247.819 30.6091C248.109 30.0188 248.512 29.5603 249.026 29.2338C249.544 28.9074 250.146 28.7441 250.832 28.7441C251.518 28.7441 252.118 28.9074 252.632 29.2338C253.15 29.5603 253.553 30.0188 253.84 30.6091C254.13 31.1994 254.275 31.8903 254.275 32.6818C254.275 33.4667 254.13 34.1527 253.84 34.7397C253.553 35.3268 253.15 35.7835 252.632 36.11C252.118 36.4365 251.518 36.5998 250.832 36.5998ZM250.832 35.551C251.353 35.551 251.782 35.4175 252.118 35.1503C252.454 34.8832 252.703 34.532 252.865 34.0966C253.027 33.6613 253.107 33.1897 253.107 32.6818C253.107 32.174 253.027 31.7007 252.865 31.2621C252.703 30.8235 252.454 30.4689 252.118 30.1985C251.782 29.9281 251.353 29.7928 250.832 29.7928C250.311 29.7928 249.882 29.9281 249.546 30.1985C249.209 30.4689 248.96 30.8235 248.799 31.2621C248.637 31.7007 248.556 32.174 248.556 32.6818C248.556 33.1897 248.637 33.6613 248.799 34.0966C248.96 34.532 249.209 34.8832 249.546 35.1503C249.882 35.4175 250.311 35.551 250.832 35.551Z" fill="#A1A1AA"/>
<path d="M257.224 31.8705V36.4415H256.057V28.843H257.185V30.0303H257.284C257.462 29.6444 257.732 29.3344 258.095 29.1003C258.458 28.8628 258.926 28.7441 259.5 28.7441C260.015 28.7441 260.465 28.8496 260.851 29.0607C261.236 29.2685 261.537 29.5851 261.751 30.0105C261.965 30.4326 262.072 30.9669 262.072 31.6133V36.4415H260.905V31.6925C260.905 31.0955 260.75 30.6305 260.44 30.2974C260.13 29.961 259.705 29.7928 259.164 29.7928C258.791 29.7928 258.458 29.8736 258.164 30.0352C257.874 30.1968 257.645 30.4326 257.477 30.7427C257.309 31.0527 257.224 31.4286 257.224 31.8705Z" fill="#A1A1AA"/>
<path d="M267.075 36.5998C266.442 36.5998 265.883 36.4398 265.398 36.1199C264.913 35.7967 264.534 35.3416 264.26 34.7546C263.986 34.1643 263.85 33.4667 263.85 32.662C263.85 31.8639 263.986 31.1714 264.26 30.5844C264.534 29.9973 264.915 29.5439 265.403 29.224C265.891 28.9041 266.455 28.7441 267.095 28.7441C267.589 28.7441 267.98 28.8266 268.267 28.9914C268.557 29.153 268.778 29.3377 268.93 29.5455C269.085 29.75 269.205 29.9182 269.291 30.0501H269.39V26.3102H270.558V36.4415H269.43V35.274H269.291C269.205 35.4125 269.083 35.5873 268.925 35.7984C268.767 36.0062 268.541 36.1925 268.247 36.3574C267.954 36.519 267.563 36.5998 267.075 36.5998ZM267.233 35.551C267.702 35.551 268.097 35.429 268.421 35.185C268.744 34.9376 268.989 34.5963 269.158 34.161C269.326 33.7223 269.41 33.2161 269.41 32.6423C269.41 32.075 269.327 31.5787 269.163 31.1532C268.998 30.7245 268.754 30.3914 268.43 30.154C268.107 29.9132 267.708 29.7928 267.233 29.7928C266.739 29.7928 266.326 29.9198 265.997 30.1738C265.67 30.4244 265.424 30.7657 265.259 31.1978C265.098 31.6265 265.017 32.108 265.017 32.6423C265.017 33.1831 265.1 33.6745 265.264 34.1164C265.433 34.5551 265.68 34.9046 266.006 35.1652C266.336 35.4224 266.745 35.551 267.233 35.551Z" fill="#A1A1AA"/>
<path d="M275.945 36.5998C275.259 36.5998 274.657 36.4365 274.139 36.11C273.625 35.7835 273.222 35.3268 272.932 34.7397C272.645 34.1527 272.502 33.4667 272.502 32.6818C272.502 31.8903 272.645 31.1994 272.932 30.6091C273.222 30.0188 273.625 29.5603 274.139 29.2338C274.657 28.9074 275.259 28.7441 275.945 28.7441C276.631 28.7441 277.231 28.9074 277.745 29.2338C278.263 29.5603 278.666 30.0188 278.952 30.6091C279.243 31.1994 279.388 31.8903 279.388 32.6818C279.388 33.4667 279.243 34.1527 278.952 34.7397C278.666 35.3268 278.263 35.7835 277.745 36.11C277.231 36.4365 276.631 36.5998 275.945 36.5998ZM275.945 35.551C276.466 35.551 276.895 35.4175 277.231 35.1503C277.567 34.8832 277.816 34.532 277.978 34.0966C278.14 33.6613 278.22 33.1897 278.22 32.6818C278.22 32.174 278.14 31.7007 277.978 31.2621C277.816 30.8235 277.567 30.4689 277.231 30.1985C276.895 29.9281 276.466 29.7928 275.945 29.7928C275.424 29.7928 274.995 29.9281 274.659 30.1985C274.322 30.4689 274.073 30.8235 273.912 31.2621C273.75 31.7007 273.669 32.174 273.669 32.6818C273.669 33.1897 273.75 33.6613 273.912 34.0966C274.073 34.532 274.322 34.8832 274.659 35.1503C274.995 35.4175 275.424 35.551 275.945 35.551Z" fill="#A1A1AA"/>
<path d="M282.337 31.8705V36.4415H281.17V28.843H282.298V30.0303H282.397C282.575 29.6444 282.845 29.3344 283.208 29.1003C283.571 28.8628 284.039 28.7441 284.613 28.7441C285.127 28.7441 285.578 28.8496 285.963 29.0607C286.349 29.2685 286.649 29.5851 286.864 30.0105C287.078 30.4326 287.185 30.9669 287.185 31.6133V36.4415H286.018V31.6925C286.018 31.0955 285.863 30.6305 285.553 30.2974C285.243 29.961 284.817 29.7928 284.277 29.7928C283.904 29.7928 283.571 29.8736 283.277 30.0352C282.987 30.1968 282.758 30.4326 282.59 30.7427C282.421 31.0527 282.337 31.4286 282.337 31.8705Z" fill="#A1A1AA"/>
</svg>
